<?xml version="1.0" encoding="UTF-8" standalone="no"?><svg xmlns="http://www.w3.org/2000/svg" xmlns:xlink="http://www.w3.org/1999/xlink" contentStyleType="text/css" height="403px" preserveAspectRatio="none" style="width:343px;height:403px;background:#FFFFFF;" version="1.1" viewBox="0 0 343 403" width="343px" zoomAndPan="magnify"><defs/><g><!--MD5=[fac864e77539af95038f0151207ed802]
cluster API--><g id="cluster_API"><rect fill="none" height="103" rx="3.5" ry="3.5" style="stroke:#696969;stroke-width:1.0;" width="324" x="13" y="140.4585"/><path d="M47,140.4585 L47,152.5265 L37,162.5265 L13,162.5265 " fill="none" style="stroke:#696969;stroke-width:1.0;"/><text fill="#000000" font-family="sans-serif" font-size="14" font-weight="bold" lengthAdjust="spacing" textLength="24" x="16" y="156.4245">API</text></g><!--MD5=[a31f8263c76436e142375e2c24f5cc81]
cluster Web--><g id="cluster_Web"><rect fill="none" height="103" rx="3.5" ry="3.5" style="stroke:#696969;stroke-width:1.0;" width="104" x="7" y="294.4585"/><path d="M48,294.4585 L48,306.5265 L38,316.5265 L7,316.5265 " fill="none" style="stroke:#696969;stroke-width:1.0;"/><text fill="#000000" font-family="sans-serif" font-size="14" font-weight="bold" lengthAdjust="spacing" textLength="31" x="10" y="310.4245">Web</text></g><!--MD5=[e6f2b24b0e8c3b21a1e7339bde7a142f]
cluster Mobile--><g id="cluster_Mobile"><rect fill="none" height="103" rx="3.5" ry="3.5" style="stroke:#696969;stroke-width:1.0;" width="114" x="136" y="294.4585"/><path d="M193,294.4585 L193,306.5265 L183,316.5265 L136,316.5265 " fill="none" style="stroke:#696969;stroke-width:1.0;"/><text fill="#000000" font-family="sans-serif" font-size="14" font-weight="bold" lengthAdjust="spacing" textLength="47" x="139" y="310.4245">Mobile</text></g><!--MD5=[3e16c5ebf4b4daacbb417a5459fd30c0]
entity REST API--><g id="elem_REST API"><rect fill="#F1F1F1" height="49.0679" rx="3.5" ry="3.5" style="stroke:#181818;stroke-width:0.5;" width="99" x="121.5" y="178.4585"/><rect fill="#F1F1F1" height="10" style="stroke:#181818;stroke-width:0.5;" width="15" x="200.5" y="183.4585"/><rect fill="#F1F1F1" height="2" style="stroke:#181818;stroke-width:0.5;" width="4" x="198.5" y="185.4585"/><rect fill="#F1F1F1" height="2" style="stroke:#181818;stroke-width:0.5;" width="4" x="198.5" y="189.4585"/><text fill="#000000" font-family="sans-serif" font-size="14" lengthAdjust="spacing" textLength="59" x="136.5" y="213.4245">REST API</text></g><!--MD5=[bd279dc15ec8cc25864051982acdc86f]
entity games--><g id="elem_games"><path d="M255.5,188.9585 C255.5,178.9585 288,178.9585 288,178.9585 C288,178.9585 320.5,178.9585 320.5,188.9585 L320.5,217.0265 C320.5,227.0265 288,227.0265 288,227.0265 C288,227.0265 255.5,227.0265 255.5,217.0265 L255.5,188.9585 " fill="#00FFFF" style="stroke:#454645;stroke-width:0.5;"/><path d="M255.5,188.9585 C255.5,198.9585 288,198.9585 288,198.9585 C288,198.9585 320.5,198.9585 320.5,188.9585 " fill="none" style="stroke:#454645;stroke-width:0.5;"/><text fill="#454645" font-family="sans-serif" font-size="14" lengthAdjust="spacing" textLength="45" x="265.5" y="217.9245">games</text></g><!--MD5=[5f2f9dbbee692058d60489180693f774]
entity users--><g id="elem_users"><path d="M29.5,188.9585 C29.5,178.9585 58,178.9585 58,178.9585 C58,178.9585 86.5,178.9585 86.5,188.9585 L86.5,217.0265 C86.5,227.0265 58,227.0265 58,227.0265 C58,227.0265 29.5,227.0265 29.5,217.0265 L29.5,188.9585 " fill="#00FFFF" style="stroke:#454645;stroke-width:0.5;"/><path d="M29.5,188.9585 C29.5,198.9585 58,198.9585 58,198.9585 C58,198.9585 86.5,198.9585 86.5,188.9585 " fill="none" style="stroke:#454645;stroke-width:0.5;"/><text fill="#454645" font-family="sans-serif" font-size="14" lengthAdjust="spacing" textLength="37" x="39.5" y="217.9245">users</text></g><!--MD5=[ddfbe58de4e7a3b3ef8b78145eab9157]
entity flask--><g id="elem_flask"><rect fill="#F1F1F1" height="49.0679" rx="3.5" ry="3.5" style="stroke:#181818;stroke-width:0.5;" width="71" x="23.5" y="332.4585"/><rect fill="#F1F1F1" height="10" style="stroke:#181818;stroke-width:0.5;" width="15" x="74.5" y="337.4585"/><rect fill="#F1F1F1" height="2" style="stroke:#181818;stroke-width:0.5;" width="4" x="72.5" y="339.4585"/><rect fill="#F1F1F1" height="2" style="stroke:#181818;stroke-width:0.5;" width="4" x="72.5" y="343.4585"/><text fill="#000000" font-family="sans-serif" font-size="14" lengthAdjust="spacing" textLength="31" x="38.5" y="367.4245">flask</text></g><!--MD5=[8204dae4e221b3d1a0bfeeb54dce7525]
entity flutter--><g id="elem_flutter"><rect fill="#F1F1F1" height="49.0679" rx="3.5" ry="3.5" style="stroke:#181818;stroke-width:0.5;" width="82" x="152" y="332.4585"/><rect fill="#F1F1F1" height="10" style="stroke:#181818;stroke-width:0.5;" width="15" x="214" y="337.4585"/><rect fill="#F1F1F1" height="2" style="stroke:#181818;stroke-width:0.5;" width="4" x="212" y="339.4585"/><rect fill="#F1F1F1" height="2" style="stroke:#181818;stroke-width:0.5;" width="4" x="212" y="343.4585"/><text fill="#000000" font-family="sans-serif" font-size="14" lengthAdjust="spacing" textLength="42" x="167" y="367.4245">flutter</text></g><!--MD5=[b9043c2a9c0284b5105a937d12c4195f]
entity Repo--><g id="elem_Repo"><path d="M175.8831,17.631 C179.4308,8.6864 184.6695,8.7591 190.9038,14.968 C193.9183,9.6481 199.2978,8.9881 202.9437,14.2495 C206.913,7.4866 213.108,7.8253 217.307,13.9944 C220.5522,6.9028 226.9879,6.1272 231.1979,13.0371 C235.7623,6 240.3213,6.3077 244.3683,13.5153 C248.4452,8.1451 252.2268,8.3245 255.7898,14.0446 C261.6083,8.5059 266.7915,7.5103 270.9833,15.8283 C274.7714,8.9106 280.3872,8.4555 284.5281,15.4858 C290.6475,19.6682 291.8258,25.6155 284.6549,29.9148 C292.9862,32.7824 293.1648,37.1347 287.858,43.2726 C293.5373,48.2227 290.8,53.6699 284.7288,55.6489 C291.1068,59.8857 290.4091,65.056 283.7464,68.2784 C281.602,75.2354 276.0221,76.5637 270.8177,71.596 C267.4314,78.3884 260.6204,79.2318 255.8782,73.1721 C252.6534,79.2815 248.955,80.626 243.4904,75.6823 C241.0905,82.4692 235.0815,82.0869 230.9844,77.5579 C226.1179,82.3267 220.6819,81.7003 217.7116,75.3039 C212.4708,82.3565 206.3314,79.9852 203.3999,72.9568 C197.6247,79.9841 193.3411,78.0406 189.171,71.2982 C183.7138,76.1168 178.9527,76.7636 175.7224,68.9308 C169.7236,64.4511 167.9249,60.2091 174.9967,55.0462 C168.5478,52.3228 167.3994,46.1614 172.9043,41.5805 C167.4047,38.1165 168.438,32.7193 174.2385,30.6324 C168.7646,26.2895 169.3334,20.453 175.8831,17.631 " fill="#F1F1F1" style="stroke:#181818;stroke-width:0.5;"/><text fill="#000000" font-family="sans-serif" font-size="14" lengthAdjust="spacing" textLength="67" x="195.5" y="37.4245">TB Games</text><text fill="#000000" font-family="sans-serif" font-size="14" lengthAdjust="spacing" textLength="93" x="182.5" y="56.4924">(GitHub Repo)</text></g><!--MD5=[8fe6779714382379c75252ccd505b35b]
reverse link REST API to flask--><g id="link_REST API_flask"><path d="M150.45,231.8485 C129.2,260.6885 96.38,305.2285 76.38,332.3785 " fill="none" id="REST API-backto-flask" style="stroke:#454645;stroke-width:1.0;"/><polygon fill="#454645" points="153.5,227.7085,144.9416,232.5823,150.5345,231.7342,151.3826,237.3271,153.5,227.7085" style="stroke:#454645;stroke-width:1.0;"/><text fill="#000000" font-family="sans-serif" font-size="13" lengthAdjust="spacing" textLength="35" x="130" y="274.3556">CRUD</text></g><!--MD5=[8ffa1793783717635b811c8b0c152586]
link users to flask--><g id="link_users_flask"><path d="M58.15,227.0485 C58.34,255.5285 58.66,303.7085 58.85,332.4085 " fill="none" id="users-flask" style="stroke:#454645;stroke-width:1.0;stroke-dasharray:7.0,7.0;"/></g><!--MD5=[6e0f906b9963e981eceea0506727ef05]
reverse link REST API to flutter--><g id="link_REST API_flutter"><path d="M175.19,232.9185 C179.37,261.7785 185.71,305.5585 189.59,332.3785 " fill="none" id="REST API-backto-flutter" style="stroke:#454645;stroke-width:1.0;"/><polygon fill="#454645" points="174.44,227.7085,171.7645,237.187,175.1531,232.6574,179.6827,236.0461,174.44,227.7085" style="stroke:#454645;stroke-width:1.0;"/><text fill="#000000" font-family="sans-serif" font-size="13" lengthAdjust="spacing" textLength="60" x="183" y="274.3556">Read-only</text></g><!--MD5=[bcc9faa7f96a658d40c4cb59274409be]
reverse link Repo to REST API--><g id="link_Repo_REST API"><path d="M205.91,80.1085 C201.52,88.2685 197.29,96.9985 194,105.4585 C184.65,129.5385 178.36,158.5285 174.75,178.4085 " fill="none" id="Repo-backto-REST API" style="stroke:#454645;stroke-width:1.0;"/><polygon fill="#454645" points="208.35,75.6385,200.5356,81.6331,205.9608,80.0307,207.5631,85.4559,208.35,75.6385" style="stroke:#454645;stroke-width:1.0;"/><text fill="#000000" font-family="sans-serif" font-size="13" lengthAdjust="spacing" textLength="40" x="195" y="120.3556">export</text></g><!--MD5=[c6002641019816d4cdde057b8350d163]
link Repo to games--><g id="link_Repo_games"><path d="M241.22,75.5085 C251.96,104.5385 267.42,146.3285 277.58,173.7985 " fill="none" id="Repo-to-games" style="stroke:#454645;stroke-width:1.0;"/><polygon fill="#454645" points="279.42,178.7585,280.0315,168.9287,277.6769,174.0722,272.5334,171.7176,279.42,178.7585" style="stroke:#454645;stroke-width:1.0;"/><text fill="#000000" font-family="sans-serif" font-size="13" lengthAdjust="spacing" textLength="41" x="259" y="120.3556">import</text></g><!--MD5=[c3d947a447eb6d9f79058cdf9932c37f]
@startuml
'https://plantuml.com/component-diagram
skinparam defaultTextAlignment center
!theme vibrant

frame "API" {
    [REST API]
    database games
    database users
}

frame "Web" {
    [flask]
}
[flask] -up-> [REST API]: "CRUD"
[flask] .up. [users]

frame "Mobile" {
    [flutter] -up-> [REST API]: "Read-only"
}

cloud "TB Games\n(GitHub Repo)" as Repo {
}

Repo <- - [REST API] : "export"
Repo - -> games : "import"


@enduml

@startuml
skinparam defaultTextAlignment center
skinparam BackgroundColor FFFFFF
skinparam shadowing false
skinparam RoundCorner 7
skinparam ArrowColor 454645
skinparam FontColor 454645
skinparam SequenceLifeLineBorderColor 696969
skinparam SequenceGroupHeaderFontColor 454645
skinparam SequenceGroupFontColor 696969
skinparam SequenceGroupBorderColor 696969
skinparam SequenceGroupBorderThickness 1

skinparam sequenceDivider {
    BorderColor 454645
    BorderThickness 1
    FontColor 454645
}

skinparam participant {
    BackgroundColor FF6347
    BorderColor 454645
    FontColor FFFFFF
    BorderThickness 1.5
}

skinparam database {
    BackgroundColor 00FFFF
    BorderColor 454645
    FontColor 454645
}

skinparam entity {
    BackgroundColor FFE552
    BorderColor 454645
    FontColor 454645
}

skinparam note {
    BackgroundColor 7FFFD4
    BorderColor 454645
    FontColor 454645
    BorderThickness 1.5
}

skinparam actor {
    BackgroundColor 454645
    BorderColor 454645
    FontColor 454645
}

skinparam boundary {
    BackgroundColor FFE552
    BorderColor 454645
    FontColor 454645
}

skinparam control {
    BackgroundColor FFE552
    BorderColor 454645
    FontColor 454645
}

skinparam collections {
    BackgroundColor FF5F42
    BorderColor 454645
    FontColor 454645
}

skinparam queue {
    BackgroundColor FF6347
    BorderColor 454645
    FontColor FFF
    BorderThickness 1.5
}

frame "API" {
    [REST API]
    database games
    database users
}

frame "Web" {
    [flask]
}
[flask] -up-> [REST API]: "CRUD"
[flask] .up. [users]

frame "Mobile" {
    [flutter] -up-> [REST API]: "Read-only"
}

cloud "TB Games\n(GitHub Repo)" as Repo {
}

Repo <- - [REST API] : "export"
Repo - -> games : "import"


@enduml

PlantUML version 1.2022.7(Mon Aug 22 19:01:30 CEST 2022)
(GPL source distribution)
Java Runtime: OpenJDK Runtime Environment
JVM: OpenJDK 64-Bit Server VM
Default Encoding: UTF-8
Language: en
Country: US
--></g></svg>